<svg version="1.1" id="Layer_1" xmlns="http://www.w3.org/2000/svg" xmlns:xlink="http://www.w3.org/1999/xlink" x="0px" y="0px"
	 width="100%" viewBox="0 0 500 494" enable-background="new 0 0 500 494" xml:space="preserve">
<path fill="#FFFFFF" opacity="1.000000" stroke="none" 
	d="
M449.000000,1.000003 
	C466.328827,1.000000 483.657654,1.000000 500.989868,1.000000 
	C500.993225,165.619400 500.993225,330.238800 500.993225,494.929108 
	C334.423920,494.929108 167.847778,494.929108 1.135822,494.929108 
	C1.135822,330.333405 1.135822,165.666718 1.135822,1.000000 
	C45.088638,1.000000 89.077339,1.000000 133.721603,1.376048 
	C134.153748,2.890323 134.070755,4.078534 133.686066,5.159370 
	C126.555687,25.193501 119.411774,45.222881 112.226562,65.237419 
	C85.379303,140.020950 58.513462,214.797821 31.684147,289.587769 
	C31.296556,290.668243 31.290012,291.885345 30.934719,294.107788 
	C33.431625,292.507965 34.973267,291.597473 36.434830,290.572723 
	C107.282425,240.900879 178.119629,191.214233 248.985107,141.567917 
	C250.706924,140.361664 252.734543,139.591965 254.758270,138.980331 
	C255.133987,139.572647 255.340073,139.850937 255.612274,140.027161 
	C326.810333,186.123886 398.012512,232.214310 469.222992,278.291809 
	C469.945160,278.759064 470.779510,279.053070 472.058716,279.666321 
	C471.820496,276.074677 471.679504,273.092224 471.416443,270.120544 
	C469.565704,249.211014 467.665192,228.305847 465.828003,207.395126 
	C463.378418,179.513702 461.006622,151.625458 458.538452,123.745720 
	C454.968567,83.420906 451.342255,43.101097 447.959290,2.607111 
	C448.452393,1.956717 448.726196,1.478361 449.000000,1.000003 
z"/>
<path fill="#107AFD" opacity="1.000000" stroke="none" 
	d="
M448.531342,1.000003 
	C448.726196,1.478361 448.452393,1.956717 447.640442,2.749018 
	C438.775177,8.802746 430.405487,14.481900 422.128021,20.292406 
	C376.748627,52.147175 331.373352,84.007935 286.040985,115.929550 
	C275.478821,123.367088 265.088776,131.049103 254.619522,138.618652 
	C252.734543,139.591965 250.706924,140.361664 248.985107,141.567917 
	C178.119629,191.214233 107.282425,240.900879 36.434830,290.572723 
	C34.973267,291.597473 33.431625,292.507965 30.934719,294.107788 
	C31.290012,291.885345 31.296556,290.668243 31.684147,289.587769 
	C58.513462,214.797821 85.379303,140.020950 112.226562,65.237419 
	C119.411774,45.222881 126.555687,25.193501 133.686066,5.159370 
	C134.070755,4.078534 134.153748,2.890323 134.188583,1.376048 
	C238.687561,1.000000 343.375122,1.000000 448.531342,1.000003 
z"/>
<path fill="#181819" opacity="1.000000" stroke="none" 
	d="
M254.758270,138.980316 
	C265.088776,131.049103 275.478821,123.367088 286.040985,115.929550 
	C331.373352,84.007935 376.748627,52.147175 422.128021,20.292406 
	C430.405487,14.481900 438.775177,8.802746 447.421173,2.921057 
	C451.342255,43.101097 454.968567,83.420906 458.538452,123.745720 
	C461.006622,151.625458 463.378418,179.513702 465.828003,207.395126 
	C467.665192,228.305847 469.565704,249.211014 471.416443,270.120544 
	C471.679504,273.092224 471.820496,276.074677 472.058716,279.666321 
	C470.779510,279.053070 469.945160,278.759064 469.222992,278.291809 
	C398.012512,232.214310 326.810333,186.123886 255.612274,140.027161 
	C255.340073,139.850937 255.133987,139.572647 254.758270,138.980316 
z"/>
</svg>